<svg width="18" height="18" viewBox="0 0 18 18" fill="none" xmlns="http://www.w3.org/2000/svg">
<path fill-rule="evenodd" clip-rule="evenodd" d="M9 1C11.2091 1 13 2.79086 13 5C13 7.20914 11.2091 9 9 9C6.79086 9 5 7.20914 5 5C5 2.79086 6.79086 1 9 1ZM9 3C7.89543 3 7 3.89543 7 5C7 6.10457 7.89543 7 9 7C10.1046 7 11 6.10457 11 5C11 3.89543 10.1046 3 9 3ZM9 10C11.67 10 17 11.33 17 14V17H1V14C1 11.33 6.33 10 9 10ZM9 11.9C6.03 11.9 2.9 13.36 2.9 14V15.1H15.1V14C15.1 13.36 11.97 11.9 9 11.9Z" fill="#1E1F20"/>
<mask id="mask0_215_946" style="mask-type:luminance" maskUnits="userSpaceOnUse" x="1" y="1" width="16" height="16">
<path fill-rule="evenodd" clip-rule="evenodd" d="M9 1C11.2091 1 13 2.79086 13 5C13 7.20914 11.2091 9 9 9C6.79086 9 5 7.20914 5 5C5 2.79086 6.79086 1 9 1ZM9 3C7.89543 3 7 3.89543 7 5C7 6.10457 7.89543 7 9 7C10.1046 7 11 6.10457 11 5C11 3.89543 10.1046 3 9 3ZM9 10C11.67 10 17 11.33 17 14V17H1V14C1 11.33 6.33 10 9 10ZM9 11.9C6.03 11.9 2.9 13.36 2.9 14V15.1H15.1V14C15.1 13.36 11.97 11.9 9 11.9Z" fill="white"/>
</mask>
<g mask="url(#mask0_215_946)">
</g>
</svg>
