<svg width="18" height="18" viewBox="0 0 18 18" fill="none" xmlns="http://www.w3.org/2000/svg">
<path fill-rule="evenodd" clip-rule="evenodd" d="M16.2 5.6H1.8V3.8H16.2V5.6ZM16.2 14.6H1.8V9.2H16.2V14.6ZM16.2 2H1.8C0.801 2 0 2.801 0 3.8V14.6C0 15.5941 0.805887 16.4 1.8 16.4H16.2C17.1941 16.4 18 15.5941 18 14.6V3.8C18 2.801 17.19 2 16.2 2Z" fill="#1E1F20"/>
<mask id="mask0_215_967" style="mask-type:luminance" maskUnits="userSpaceOnUse" x="0" y="2" width="18" height="15">
<path fill-rule="evenodd" clip-rule="evenodd" d="M16.2 5.6H1.8V3.8H16.2V5.6ZM16.2 14.6H1.8V9.2H16.2V14.6ZM16.2 2H1.8C0.801 2 0 2.801 0 3.8V14.6C0 15.5941 0.805887 16.4 1.8 16.4H16.2C17.1941 16.4 18 15.5941 18 14.6V3.8C18 2.801 17.19 2 16.2 2Z" fill="white"/>
</mask>
<g mask="url(#mask0_215_967)">
</g>
</svg>
