<svg width="18" height="18" viewBox="0 0 18 18" fill="none" xmlns="http://www.w3.org/2000/svg">
<path fill-rule="evenodd" clip-rule="evenodd" d="M9.09 14.695L9 14.785L8.901 14.695C4.626 10.816 1.8 8.251 1.8 5.65C1.8 3.85 3.15 2.5 4.95 2.5C6.336 2.5 7.686 3.4 8.163 4.624H9.837C10.314 3.4 11.664 2.5 13.05 2.5C14.85 2.5 16.2 3.85 16.2 5.65C16.2 8.251 13.374 10.816 9.09 14.695ZM13.05 0.699997C11.484 0.699997 9.981 1.429 9 2.572C8.019 1.429 6.516 0.699997 4.95 0.699997C2.178 0.699997 0 2.869 0 5.65C0 9.043 3.06 11.824 7.695 16.027L9 17.215L10.305 16.027C14.94 11.824 18 9.043 18 5.65C18 2.869 15.822 0.699997 13.05 0.699997Z" fill="#1E1F20"/>
<mask id="mask0_215_977" style="mask-type:luminance" maskUnits="userSpaceOnUse" x="0" y="0" width="18" height="18">
<path fill-rule="evenodd" clip-rule="evenodd" d="M9.09 14.695L9 14.785L8.901 14.695C4.626 10.816 1.8 8.251 1.8 5.65C1.8 3.85 3.15 2.5 4.95 2.5C6.336 2.5 7.686 3.4 8.163 4.624H9.837C10.314 3.4 11.664 2.5 13.05 2.5C14.85 2.5 16.2 3.85 16.2 5.65C16.2 8.251 13.374 10.816 9.09 14.695ZM13.05 0.699997C11.484 0.699997 9.981 1.429 9 2.572C8.019 1.429 6.516 0.699997 4.95 0.699997C2.178 0.699997 0 2.869 0 5.65C0 9.043 3.06 11.824 7.695 16.027L9 17.215L10.305 16.027C14.94 11.824 18 9.043 18 5.65C18 2.869 15.822 0.699997 13.05 0.699997Z" fill="white"/>
</mask>
<g mask="url(#mask0_215_977)">
</g>
</svg>
