<svg width="8" height="10" viewBox="0 0 8 10" fill="none" xmlns="http://www.w3.org/2000/svg">
<g clip-path="url(#clip0_3695_2422)">
<path d="M6.66634 3.875C6.66634 6.21218 4.82485 8.2904 4.20242 8.9261C4.08559 9.04542 3.91376 9.04542 3.79693 8.9261C3.1745 8.2904 1.33301 6.21218 1.33301 3.875C1.33301 2.21815 2.52692 0.875 3.99967 0.875C5.47243 0.875 6.66634 2.21815 6.66634 3.875Z" stroke="#8F92A1" stroke-linecap="round"/>
<path d="M4.99967 3.875C4.99967 4.49632 4.55196 5 3.99967 5C3.44739 5 2.99967 4.49632 2.99967 3.875C2.99967 3.25368 3.44739 2.75 3.99967 2.75C4.55196 2.75 4.99967 3.25368 4.99967 3.875Z" stroke="#8F92A1" stroke-linecap="round"/>
</g>
<defs>
<clipPath id="clip0_3695_2422">
<rect width="8" height="9" fill="white" transform="translate(0 0.5)"/>
</clipPath>
</defs>
</svg>
