<svg width="18" height="18" viewBox="0 0 18 18" fill="none" xmlns="http://www.w3.org/2000/svg">
<path fill-rule="evenodd" clip-rule="evenodd" d="M12.7 13.5H4.6V7.65C4.6 5.4 6.4 3.6 8.65 3.6C10.9 3.6 12.7 5.4 12.7 7.65V13.5ZM14.5 12.6V7.65C14.5 4.887 12.574 2.574 10 1.962V1.35C10 0.604416 9.39558 0 8.65 0C7.90442 0 7.3 0.604416 7.3 1.35V1.962C4.717 2.574 2.8 4.887 2.8 7.65V12.6L1 14.4V15.3H16.3V14.4L14.5 12.6ZM8.65 18C9.64411 18 10.45 17.1941 10.45 16.2H6.85C6.85 17.1941 7.65589 18 8.65 18Z" fill="#1E1F20"/>
<mask id="mask0_213_922" style="mask-type:luminance" maskUnits="userSpaceOnUse" x="1" y="0" width="16" height="18">
<path fill-rule="evenodd" clip-rule="evenodd" d="M12.7 13.5H4.6V7.65C4.6 5.4 6.4 3.6 8.65 3.6C10.9 3.6 12.7 5.4 12.7 7.65V13.5ZM14.5 12.6V7.65C14.5 4.887 12.574 2.574 10 1.962V1.35C10 0.604416 9.39558 0 8.65 0C7.90442 0 7.3 0.604416 7.3 1.35V1.962C4.717 2.574 2.8 4.887 2.8 7.65V12.6L1 14.4V15.3H16.3V14.4L14.5 12.6ZM8.65 18C9.64411 18 10.45 17.1941 10.45 16.2H6.85C6.85 17.1941 7.65589 18 8.65 18Z" fill="white"/>
</mask>
<g mask="url(#mask0_213_922)">
</g>
</svg>
